<svg width="24" height="24" viewBox="0 0 24 24" fill="none" xmlns="http://www.w3.org/2000/svg">
<path d="M16.8308 10.4803L13.5197 7.16916M4 20L6.80156 19.6887C7.14385 19.6507 7.31498 19.6316 7.47496 19.5799C7.61687 19.534 7.75193 19.4691 7.87647 19.3869C8.01683 19.2943 8.13859 19.1726 8.38212 18.9291L19.3142 7.99695C20.2286 7.08259 20.2286 5.60013 19.3142 4.68577C18.3998 3.77141 16.9174 3.77141 16.003 4.68577L5.07094 15.6179C4.82742 15.8614 4.70565 15.9831 4.6131 16.1235C4.53097 16.2481 4.46606 16.3831 4.42011 16.5251C4.36834 16.685 4.34931 16.8561 4.31128 17.1984L4 20Z" stroke="black" stroke-width="2" stroke-linecap="round" stroke-linejoin="round"/>
</svg>
