<svg width="86" height="86" viewBox="0 0 86 86" fill="none" xmlns="http://www.w3.org/2000/svg">
<g clip-path="url(#clip0_10462_2461)">
<path d="M63.7989 0H22.2011C9.93978 0 0 9.93978 0 22.2011V63.7989C0 76.0602 9.93978 86 22.2011 86H63.7989C76.0602 86 86 76.0602 86 63.7989V22.2011C86 9.93978 76.0602 0 63.7989 0Z" fill="#33B93C"/>
<path d="M43.0004 13.2363C37.9093 13.2372 32.9082 14.5881 28.5003 17.1532C24.0924 19.7183 20.4331 23.407 17.8907 27.8483C15.3483 32.2896 14.0124 37.3267 14.0174 42.453C14.0224 47.5792 15.3682 52.6137 17.9192 57.0499L13.9792 72.2363L29.3102 68.1475C33.1948 70.2424 37.5025 71.4178 41.906 71.5845C46.3095 71.7512 50.6928 70.9047 54.7226 69.1094C58.7523 67.3141 62.3225 64.6172 65.1616 61.2239C68.0007 57.8305 70.0341 53.83 71.107 49.5266C72.1799 45.2231 72.2642 40.7299 71.3534 36.3887C70.4426 32.0475 68.5608 27.9726 65.8509 24.4737C63.1411 20.9748 59.6746 18.1442 55.715 16.1969C51.7554 14.2497 47.407 13.2372 43.0004 13.2363ZM60.0457 59.5854C56.1539 63.502 51.0492 65.961 45.5784 66.5547C40.1077 67.1483 34.5999 65.8408 29.9686 62.8491L21.0625 65.2276L23.3389 56.4681C20.6795 52.6945 19.1467 48.2341 18.9211 43.6125C18.6955 38.9909 19.7864 34.4007 22.0654 30.3826C24.3444 26.3646 27.7165 23.0861 31.7844 20.9335C35.8523 18.7809 40.4465 17.8438 45.0257 18.2327C49.6049 18.6216 53.9783 20.3202 57.6306 23.1285C61.283 25.9367 64.0621 29.7376 65.6405 34.0833C67.2189 38.4289 67.5309 43.1383 66.5396 47.6565C65.5484 52.1748 63.2953 56.3136 60.0457 59.5854Z" fill="white"/>
<path d="M57.9792 49.9879C57.9807 50.4585 57.939 50.9284 57.8545 51.392C57.7751 51.862 57.6542 52.3248 57.4931 52.7753C57.1227 53.7765 55.0987 55.0024 55.0987 55.0024C53.6605 55.9185 51.9419 56.3448 50.2197 56.2128C49.8158 56.1733 49.4146 56.1122 49.018 56.0295C48.3457 55.886 48.0187 55.7944 48.0187 55.7944C47.6934 55.7027 46.8495 55.4485 46.8495 55.4485C46.0056 55.1961 45.8159 55.1477 45.8159 55.1477C44.534 54.779 43.2918 54.2944 42.106 53.7004C39.3719 52.279 36.3938 49.732 36.3938 49.732C34.6306 48.2321 33.0365 46.5596 31.6376 44.7417C30.8935 43.6776 30.2524 42.5507 29.7221 41.3751C29.6499 41.2022 29.2939 40.4258 29.2939 40.4258C28.9325 39.6512 28.806 39.352 28.806 39.352C28.6759 39.0512 28.4445 38.4287 28.4445 38.4287C28.3126 38.0614 28.2046 37.6866 28.1211 37.3065C28.0546 36.9636 28.0099 36.6171 27.9874 36.269C27.8826 34.4499 28.8276 32.5358 28.8276 32.5358C29.8667 30.4781 30.8751 30.0078 30.8751 30.0078C31.326 29.813 31.791 29.6495 32.2665 29.5185C32.7371 29.3788 33.2216 29.2861 33.7121 29.2418C33.859 29.228 34.0073 29.2403 34.1495 29.2781C34.5289 29.3767 35.3331 30.7219 35.3331 30.7219C35.5825 31.085 36.0143 31.7594 36.0143 31.7594C36.448 32.4303 36.8113 32.9698 36.8113 32.9698C37.1727 33.5145 37.5124 33.9917 37.5124 33.9917C37.5793 34.0678 37.9027 34.4672 37.9027 34.4672C38.0804 34.6821 38.2422 34.9086 38.387 35.1451C38.4863 35.3163 38.5478 35.5052 38.5677 35.7001C38.5894 36.0961 38.0364 36.7203 38.0364 36.7203C37.6608 37.1335 37.2537 37.5196 36.8185 37.8754C36.3889 38.224 35.9815 38.597 35.5987 38.9924C35.0421 39.5768 35.0566 39.933 35.0566 39.933C35.0784 40.0843 35.1215 40.2321 35.1849 40.3722C35.3042 40.6333 35.3855 40.7682 35.3855 40.7682C35.465 40.9013 35.7017 41.2264 35.7017 41.2264C35.9384 41.5515 35.9601 41.5895 35.9601 41.5895C37.0511 43.221 38.3494 44.7166 39.8254 46.042C41.9632 47.8715 44.8852 49.2219 44.8852 49.2219C44.9286 49.2392 45.2918 49.4277 45.2918 49.4277C45.6532 49.6179 45.8032 49.6784 45.8032 49.6784C45.9514 49.7407 46.2369 49.8237 46.2369 49.8237C46.3882 49.8729 46.5469 49.8981 46.7067 49.898C47.079 49.879 47.6247 49.2842 47.6247 49.2842C47.9918 48.8755 48.3333 48.4465 48.6475 47.9994C48.9692 47.547 49.3249 47.1176 49.7119 46.7147C50.2992 46.1181 50.713 46.0956 50.713 46.0956C50.9172 46.094 51.1197 46.1304 51.3093 46.2029C51.5695 46.3169 51.8223 46.4457 52.0665 46.5885C52.5183 46.8513 52.6086 46.9066 52.6086 46.9066C53.1507 47.1764 53.7507 47.4599 53.7507 47.4599C54.3579 47.7452 55.1024 48.0824 55.1024 48.0824C55.8469 48.4196 56.2517 48.615 56.2517 48.615C57.7389 49.2306 57.878 49.5799 57.878 49.5799C57.9324 49.7104 57.9665 49.8479 57.9792 49.9879Z" fill="white"/>
</g>
<defs>
<clipPath id="clip0_10462_2461">
<rect width="86" height="86" fill="white"/>
</clipPath>
</defs>
</svg>
